#!OML:ASF I:\Actors\actors\Patient Classification 1\Patient 1\Session 1\Subject1.ASF
:FULLY-SPECIFIED
:DEGREES
817
root 0.667717 17.8076 7.66885 21.1146 -18.5283 -1.16409
lowerback 12.0236 -1.73838 5.59127
upperback 4.27285 -1.48548 8.26355
thorax -2.15704 -0.803031 5.76572
lowerneck -14.5783 4.47972 11.486
upperneck 23.9847 2.35938 2.74759
head 10.2967 2.36969 -0.630076
rclavicle -2.06736e-014 -1.74931e-014
rhumerus 39.1284 71.6769 -21.2492
rradius 83.2257
rwrist -42.2976
rhand 15.7246 -28.9229
rfingers 7.12502
rthumb 40.5333 -53.9859
lclavicle -2.06736e-014 -1.74931e-014
lhumerus 44.2771 -46.8668 14.9339
lradius 49.7377
lwrist 26.1085
lhand 5.05236 -14.7672
lfingers 7.12502
lthumb 30.4199 12.7432
rfemur -30.634 24.099 3.02794
rtibia 9.65131
rfoot -6.3334 -16.4427
rtoes -9.70189
lfemur -17.646 -25.3186 -11.903
ltibia 2.00754
lfoot -19.5382 48.3056
ltoes 15.423
818
root 0.654305 17.7934 7.71827 21.6178 -18.3509 -2.273
lowerback 11.6846 -2.0845 6.82637
upperback 4.17226 -1.82871 8.66487
thorax -2.0746 -0.973893 5.54114
lowerneck -13.8826 4.66072 11.4572
upperneck 24.1079 2.69859 2.75445
head 10.224 2.51867 -0.590157
rclavicle 5.40694e-014 9.54166e-015
rhumerus 40.0575 73.0825 -19.7894
rradius 83.1623
rwrist -42.4765
rhand 15.4127 -28.522
rfingers 7.12502
rthumb 40.24 -53.6752
lclavicle 5.40694e-014 9.54166e-015
lhumerus 34.4838 -50.5872 25.877
lradius 51.6402
lwrist 26.0682
lhand 7.31769 -15.7464
lfingers 7.12502
lthumb 32.578 11.3419
rfemur -30.3283 24.7547 4.26888
rtibia 9.19807
rfoot -6.46011 -16.7261
rtoes -9.62348
lfemur -17.4269 -24.7418 -10.8064
ltibia 1.81335
lfoot -19.5458 47.9393
ltoes 15.3705
819
root 0.638442 17.7803 7.75255 21.5997 -18.3434 -2.71043
lowerback 11.7942 -1.98262 7.74708
upperback 4.13074 -1.5761 8.51572
thorax -2.21482 -0.844314 4.83551
lowerneck -14.1108 4.48774 11.9916
upperneck 24.4636 2.16778 3.09485
head 10.3939 2.37775 -0.616697
rclavicle 1.27222e-014 -1.59028e-014
rhumerus 36.5343 73.8118 -22.6913
rradius 82.9698
rwrist -42.522
rhand 15.1302 -27.9438
rfingers 7.12502
rthumb 39.9742 -53.1776
lclavicle 1.27222e-014 -1.59028e-014
lhumerus 25.4295 -53.4326 36.3362
lradius 53.1994
lwrist 26.5994
lhand 6.81375 -16.0538
lfingers 7.12502
lthumb 32.0984 11.1323
rfemur -29.988 24.9684 4.99334
rtibia 9.25045
rfoot -6.70758 -16.582
rtoes -9.51216
lfemur -16.985 -24.1142 -10.6062
ltibia 1.78627
lfoot -19.2875 47.4802
ltoes 14.8375
820
root 0.619109 17.7671 7.78202 21.3153 -18.2712 -2.80407
lowerback 11.97 -1.87533 8.16225
upperback 4.14887 -1.36742 8.42694
thorax -2.30717 -0.739511 4.48591
lowerneck -14.5473 4.27707 12.1007
upperneck 24.8671 1.60396 3.61752
head 10.6096 2.21305 -0.510827
rclavicle 1.59028e-015 -3.18055e-015
rhumerus 34.0094 74.4412 -24.4414
rradius 82.7685
rwrist -42.5173
rhand 15.0695 -27.4388
rfingers 7.12502
rthumb 39.917 -52.6899
lclavicle 1.59028e-015 -3.18055e-015
lhumerus 14.8628 -54.1041 48.3195
lradius 54.1669
lwrist 27.3236
lhand 6.81509 -15.8659
lfingers 7.12502
lthumb 32.0997 11.32
rfemur -29.6238 24.8138 5.51615
rtibia 9.66152
rfoot -6.99128 -16.2154
rtoes -9.87998
lfemur -16.5074 -23.3455 -10.8347
ltibia 1.90442
lfoot -18.6052 46.799
ltoes 13.6111
821
root 0.59486 17.7547 7.81512 20.9871 -17.8638 -2.89705
lowerback 11.9737 -1.91719 8.46553
upperback 4.14342 -1.38303 8.55299
thorax -2.31599 -0.747423 4.45665
lowerneck -14.7784 4.09514 11.999
upperneck 25.3136 1.22041 3.91933
head 10.8054 2.08853 -0.429696
rclavicle -4.29375e-014 -1.24042e-013
rhumerus 33.3883 75.2001 -24.2442
rradius 82.6207
rwrist -42.7001
rhand 15.7232 -28.2489
rfingers 7.12502
rthumb 40.532 -53.3123
lclavicle -4.29375e-014 -1.24042e-013
lhumerus 3.69844 -52.403 60.5538
lradius 54.6986
lwrist 26.3583
lhand 4.56167 -16.2366
lfingers 7.12502
lthumb 29.9518 11.3594
rfemur -29.1572 24.5868 6.11106
rtibia 10.1784
rfoot -7.43785 -16.0027
rtoes -9.88734
lfemur -16.0706 -22.7935 -10.9599
ltibia 2.03193
lfoot -17.6396 46.1402
ltoes 11.9906
822
root 0.566622 17.7442 7.84953 20.5575 -17.1254 -2.885
lowerback 11.9296 -2.03206 8.7573
upperback 4.07982 -1.49257 8.70781
thorax -2.3584 -0.802256 4.47856
lowerneck -14.6351 3.96738 12.1705
upperneck 25.5502 1.05121 3.73893
head 10.8626 2.01773 -0.54587
rclavicle 2.8625e-014 9.54166e-015
rhumerus 33.1212 75.9062 -23.6907
rradius 82.58
rwrist -43.2372
rhand 17.3843 -31.1771
rfingers 7.12502
rthumb 42.0911 -55.7366
lclavicle 2.8625e-014 9.54166e-015
lhumerus -6.02154 -47.3328 70.9641
lradius 55.6891
lwrist 25.6352
lhand 9.87709 -14.3961
lfingers 7.12502
lthumb 35.0098 12.1577
rfemur -28.4971 24.3015 6.64595
rtibia 10.6118
rfoot -7.97922 -15.9986
rtoes -9.19205
lfemur -15.6686 -22.7248 -11.0914
ltibia 2.20867
lfoot -16.7167 45.645
ltoes 10.3362
823
root 0.533941 17.7354 7.88357 20.0239 -16.1645 -2.80244
lowerback 11.9001 -2.09526 9.07426
upperback 3.95232 -1.51959 8.81175
thorax -2.48067 -0.816825 4.42248
lowerneck -14.5837 3.7305 12.2244
upperneck 25.8017 0.649948 3.90137
head 10.934 1.87389 -0.549442
rclavicle -9.54166e-015 6.04305e-014
rhumerus 31.4564 76.482 -24.4398
rradius 82.5875
rwrist -43.7173
rhand 17.2041 -32.4504
rfingers 7.12502
rthumb 41.9221 -57.0665
lclavicle -9.54166e-015 6.04305e-014
lhumerus -13.8062 -41.6703 78.4088
lradius 57.1249
lwrist 23.4484
lhand 9.67877 -14.4726
lfingers 7.12502
lthumb 34.8216 12.1249
rfemur -27.6842 23.9359 7.16943
rtibia 11.0073
rfoot -8.56459 -16.1104
rtoes -8.19281
lfemur -15.2764 -22.8601 -11.2479
ltibia 2.45606
lfoot -15.892 45.1025
ltoes 8.70797
824
root 0.499906 17.7249 7.91409 19.6063 -15.1086 -2.79578
lowerback 11.7721 -2.06711 9.40364
upperback 3.69594 -1.42144 8.94039
thorax -2.68739 -0.772694 4.36805
lowerneck -15.0059 3.22589 11.7529
upperneck 26.4407 -0.333977 4.88349
head 11.229 1.54257 -0.239872
rclavicle -5.56597e-014 -1.90833e-014
rhumerus 28.2175 77.0796 -26.6304
rradius 82.6259
rwrist -43.8315
rhand 17.4364 -33.0176
rfingers 7.12502
rthumb 42.1399 -57.5606
lclavicle -5.56597e-014 -1.90833e-014
lhumerus -20.3541 -36.3528 83.6524
lradius 58.6585
lwrist 21.866
lhand 3.3406 -17.2583
lfingers 7.12502
lthumb 28.786 10.542
rfemur -27.0294 23.4487 7.74498
rtibia 11.4998
rfoot -9.17106 -16.1822
rtoes -7.15066
lfemur -15.0737 -22.9188 -11.2205
ltibia 2.74543
lfoot -15.2397 44.4101
ltoes 7.57911
825
root 0.466597 17.7098 7.9348 19.558 -14.0902 -3.04321
lowerback 11.4139 -1.87636 9.89232
upperback 3.30807 -1.11107 9.07619
thorax -2.91008 -0.627096 4.19761
lowerneck -15.3027 2.57508 11.3027
upperneck 26.8512 -1.49498 5.8669
head 11.4275 1.12718 0.0390775
rclavicle 4.6118e-014 -1.43125e-014
rhumerus 22.9892 77.5081 -30.7341
rradius 82.7864
rwrist -43.8169
rhand 17.5665 -33.0414
rfingers 7.12502
rthumb 42.2617 -57.5432
lclavicle 4.6118e-014 -1.43125e-014
lhumerus -25.4595 -30.4981 86.6424
lradius 61.0378
lwrist 24.1461
lhand 4.23826 -16.0173
lfingers 7.12502
lthumb 29.6431 11.634
rfemur -26.9091 22.8264 8.45927
rtibia 12.2095
rfoot -9.72416 -16.032
rtoes -6.56256
lfemur -15.3127 -22.6904 -10.7448
ltibia 3.08558
lfoot -14.5574 43.6439
ltoes 6.55042
826
root 0.425943 17.7077 7.96421 18.9048 -12.34 -3.16626
lowerback 11.4526 -1.85115 10.6609
upperback 2.94998 -0.921284 9.12912
thorax -3.32246 -0.547101 3.81887
lowerneck -15.3735 1.82738 11.1371
upperneck 26.9733 -2.71409 6.54266
head 11.4806 0.661791 0.145093
rclavicle 6.36111e-015 -1.06549e-013
rhumerus 14.7638 77.4102 -37.7256
rradius 83.0971
rwrist -43.7699
rhand 17.5558 -32.929
rfingers 7.12502
rthumb 42.2517 -57.4341
lclavicle 6.36111e-015 -1.06549e-013
lhumerus -29.853 -25.3581 88.0997
lradius 63.7985
lwrist 26.6162
lhand 3.59161 -14.9155
lfingers 7.12502
lthumb 29.0257 12.8439
rfemur -25.6172 22.4078 9.43535
rtibia 12.3925
rfoot -10.3664 -16.6449
rtoes -5.67312
lfemur -15.0295 -22.4678 -10.5175
ltibia 3.44503
lfoot -13.2703 42.2186
ltoes 4.25683
827
root 0.389086 17.6966 7.98114 18.7071 -11.5221 -3.58052
lowerback 11.3309 -1.28137 11.2755
upperback 2.55206 -0.0605102 9.11461
thorax -3.66968 -0.142011 3.3466
lowerneck -15.7082 0.930363 10.7752
upperneck 27.2034 -4.24012 7.53531
head 11.653 0.0970325 0.359986
rclavicle 7.95139e-015 -6.99722e-014
rhumerus 4.89393 76.5768 -46.2326
rradius 83.4713
rwrist -43.6376
rhand 17.5523 -32.8113
rfingers 7.12502
rthumb 42.2484 -57.3176
lclavicle 7.95139e-015 -6.99722e-014
lhumerus -33.6851 -21.0585 88.3811
lradius 66.7898
lwrist 29.1322
lhand 2.84294 -14.7645
lfingers 7.12502
lthumb 28.3105 13.1157
rfemur -25.3055 21.9369 10.386
rtibia 12.9678
rfoot -10.9153 -16.3705
rtoes -4.65417
lfemur -14.9179 -22.1884 -9.99469
ltibia 3.61001
lfoot -12.7478 41.6341
ltoes 3.06781
